<svg xmlns="http://www.w3.org/2000/svg" xmlns:xlink="http://www.w3.org/1999/xlink" width="500" zoomAndPan="magnify" viewBox="0 0 375 374.999991" height="500" preserveAspectRatio="xMidYMid meet" version="1.0"><defs><clipPath id="id1"><path d="M 19 18.75 L 358 18.75 L 358 357 L 19 357 Z M 19 18.75 " clip-rule="nonzero"/></clipPath></defs><g clip-path="url(#id1)"><path fill="rgb(50.19989%, 50.19989%, 50.19989%)" d="M 187.5 18.75 C 190.699219 18.730469 193.894531 18.804688 197.089844 18.96875 C 200.285156 19.132812 203.46875 19.382812 206.648438 19.730469 C 209.832031 20.074219 212.996094 20.507812 216.152344 21.03125 C 219.308594 21.554688 222.445312 22.167969 225.566406 22.871094 C 228.6875 23.570312 231.785156 24.363281 234.859375 25.238281 C 237.9375 26.117188 240.984375 27.082031 244.003906 28.132812 C 247.027344 29.183594 250.015625 30.316406 252.972656 31.539062 C 255.925781 32.757812 258.847656 34.0625 261.730469 35.445312 C 264.609375 36.832031 267.453125 38.296875 270.25 39.84375 C 273.046875 41.394531 275.800781 43.019531 278.507812 44.722656 C 281.214844 46.421875 283.871094 48.203125 286.476562 50.054688 C 289.082031 51.910156 291.632812 53.835938 294.128906 55.835938 C 296.625 57.832031 299.058594 59.902344 301.4375 62.039062 C 303.816406 64.175781 306.132812 66.375 308.386719 68.644531 C 310.640625 70.914062 312.824219 73.242188 314.945312 75.636719 C 317.066406 78.027344 319.117188 80.476562 321.101562 82.988281 C 323.082031 85.496094 324.988281 88.058594 326.824219 90.675781 C 328.660156 93.292969 330.421875 95.957031 332.105469 98.675781 C 333.789062 101.390625 335.394531 104.152344 336.921875 106.960938 C 338.449219 109.769531 339.894531 112.617188 341.261719 115.507812 C 342.625 118.398438 343.90625 121.324219 345.105469 124.285156 C 346.304688 127.25 347.417969 130.242188 348.449219 133.269531 C 349.476562 136.296875 350.417969 139.347656 351.273438 142.425781 C 352.128906 145.507812 352.894531 148.605469 353.574219 151.730469 C 354.253906 154.851562 354.84375 157.992188 355.34375 161.148438 C 355.84375 164.304688 356.253906 167.472656 356.574219 170.652344 C 356.894531 173.832031 357.125 177.015625 357.265625 180.210938 C 357.402344 183.402344 357.453125 186.597656 357.410156 189.792969 C 357.367188 192.988281 357.234375 196.179688 357.011719 199.367188 C 356.785156 202.554688 356.472656 205.730469 356.066406 208.902344 C 355.664062 212.070312 355.167969 215.226562 354.585938 218.371094 C 354.003906 221.511719 353.328125 224.632812 352.566406 227.738281 C 351.808594 230.839844 350.957031 233.921875 350.023438 236.976562 C 349.085938 240.03125 348.0625 243.058594 346.953125 246.054688 C 345.847656 249.054688 344.652344 252.019531 343.375 254.949219 C 342.101562 257.878906 340.742188 260.769531 339.300781 263.621094 C 337.859375 266.472656 336.335938 269.285156 334.738281 272.050781 C 333.136719 274.816406 331.457031 277.535156 329.703125 280.207031 C 327.945312 282.878906 326.117188 285.496094 324.210938 288.066406 C 322.308594 290.632812 320.332031 293.144531 318.285156 295.597656 C 316.238281 298.054688 314.121094 300.449219 311.941406 302.785156 C 309.757812 305.121094 307.507812 307.390625 305.195312 309.601562 C 302.882812 311.808594 300.511719 313.949219 298.078125 316.023438 C 295.640625 318.09375 293.152344 320.097656 290.605469 322.027344 C 288.054688 323.960938 285.453125 325.820312 282.800781 327.601562 C 280.148438 329.386719 277.445312 331.09375 274.695312 332.726562 C 271.945312 334.359375 269.148438 335.910156 266.3125 337.382812 C 263.472656 338.855469 260.59375 340.246094 257.675781 341.554688 C 254.757812 342.863281 251.804688 344.089844 248.820312 345.230469 C 245.832031 346.371094 242.8125 347.429688 239.765625 348.398438 C 236.71875 349.367188 233.644531 350.253906 230.546875 351.046875 C 227.449219 351.84375 224.332031 352.550781 221.195312 353.171875 C 218.054688 353.789062 214.902344 354.320312 211.734375 354.761719 C 208.566406 355.199219 205.390625 355.550781 202.203125 355.8125 C 199.011719 356.070312 195.820312 356.242188 192.625 356.320312 C 189.425781 356.398438 186.226562 356.386719 183.03125 356.285156 C 179.835938 356.183594 176.644531 355.988281 173.457031 355.707031 C 170.269531 355.421875 167.09375 355.046875 163.929688 354.585938 C 160.765625 354.121094 157.617188 353.566406 154.484375 352.925781 C 151.351562 352.28125 148.238281 351.550781 145.144531 350.734375 C 142.054688 349.914062 138.988281 349.007812 135.949219 348.015625 C 132.90625 347.023438 129.898438 345.945312 126.917969 344.78125 C 123.941406 343.617188 120.996094 342.371094 118.089844 341.039062 C 115.179688 339.707031 112.3125 338.296875 109.484375 336.804688 C 106.65625 335.308594 103.875 333.738281 101.136719 332.085938 C 98.398438 330.433594 95.707031 328.707031 93.066406 326.902344 C 90.425781 325.101562 87.839844 323.222656 85.308594 321.273438 C 82.773438 319.320312 80.296875 317.300781 77.878906 315.210938 C 75.460938 313.117188 73.101562 310.960938 70.808594 308.734375 C 68.511719 306.511719 66.28125 304.222656 64.113281 301.871094 C 61.949219 299.519531 59.851562 297.109375 57.820312 294.636719 C 55.792969 292.167969 53.835938 289.640625 51.949219 287.0625 C 50.066406 284.480469 48.253906 281.847656 46.519531 279.164062 C 44.78125 276.476562 43.125 273.746094 41.542969 270.96875 C 39.964844 268.191406 38.464844 265.371094 37.042969 262.507812 C 35.625 259.644531 34.285156 256.742188 33.03125 253.800781 C 31.777344 250.863281 30.605469 247.890625 29.519531 244.886719 C 28.433594 241.878906 27.433594 238.847656 26.519531 235.785156 C 25.605469 232.722656 24.78125 229.636719 24.042969 226.527344 C 23.304688 223.417969 22.652344 220.289062 22.09375 217.144531 C 21.53125 213.996094 21.0625 210.835938 20.679688 207.664062 C 20.300781 204.492188 20.007812 201.3125 19.808594 198.121094 C 19.609375 194.933594 19.5 191.738281 19.480469 188.542969 C 19.460938 185.347656 19.535156 182.15625 19.695312 178.964844 C 19.859375 175.773438 20.113281 172.589844 20.457031 169.410156 C 20.800781 166.234375 21.234375 163.070312 21.757812 159.917969 C 22.28125 156.765625 22.894531 153.628906 23.597656 150.511719 C 24.300781 147.394531 25.089844 144.300781 25.964844 141.226562 C 26.84375 138.152344 27.808594 135.109375 28.859375 132.089844 C 29.910156 129.070312 31.046875 126.085938 32.265625 123.132812 C 33.488281 120.179688 34.792969 117.261719 36.179688 114.382812 C 37.566406 111.503906 39.03125 108.664062 40.578125 105.867188 C 42.128906 103.070312 43.753906 100.320312 45.457031 97.617188 C 47.160156 94.914062 48.941406 92.257812 50.796875 89.65625 C 52.652344 87.054688 54.578125 84.503906 56.578125 82.011719 C 58.578125 79.515625 60.648438 77.082031 62.785156 74.703125 L 19.472656 74.703125 L 19.472656 37.402344 L 112.820312 37.402344 C 113.433594 37.402344 114.042969 37.429688 114.652344 37.492188 C 115.257812 37.550781 115.863281 37.640625 116.464844 37.757812 C 117.0625 37.878906 117.65625 38.027344 118.242188 38.203125 C 118.824219 38.382812 119.402344 38.585938 119.964844 38.820312 C 120.53125 39.054688 121.082031 39.316406 121.621094 39.605469 C 122.160156 39.890625 122.683594 40.207031 123.191406 40.542969 C 123.703125 40.882812 124.191406 41.246094 124.664062 41.636719 C 125.136719 42.023438 125.589844 42.433594 126.023438 42.863281 C 126.453125 43.296875 126.863281 43.75 127.253906 44.21875 C 127.640625 44.691406 128.003906 45.183594 128.34375 45.691406 C 128.683594 46.199219 128.996094 46.722656 129.285156 47.261719 C 129.574219 47.800781 129.835938 48.351562 130.070312 48.914062 C 130.304688 49.480469 130.507812 50.054688 130.6875 50.640625 C 130.863281 51.222656 131.011719 51.816406 131.132812 52.414062 C 131.25 53.011719 131.339844 53.617188 131.402344 54.226562 C 131.460938 54.832031 131.492188 55.441406 131.492188 56.054688 L 131.492188 149.3125 L 94.152344 149.3125 L 94.152344 95.398438 C 92.414062 97.175781 90.726562 99.003906 89.09375 100.878906 C 87.460938 102.753906 85.882812 104.675781 84.359375 106.640625 C 82.835938 108.605469 81.371094 110.613281 79.960938 112.664062 C 78.554688 114.710938 77.203125 116.800781 75.917969 118.925781 C 74.628906 121.050781 73.398438 123.214844 72.234375 125.410156 C 71.070312 127.605469 69.96875 129.832031 68.929688 132.09375 C 67.890625 134.351562 66.917969 136.640625 66.011719 138.953125 C 65.105469 141.269531 64.265625 143.609375 63.492188 145.96875 C 62.71875 148.332031 62.015625 150.714844 61.378906 153.117188 C 60.742188 155.523438 60.171875 157.941406 59.675781 160.375 C 59.175781 162.8125 58.746094 165.261719 58.390625 167.71875 C 58.03125 170.179688 57.742188 172.648438 57.527344 175.125 C 57.308594 177.601562 57.164062 180.082031 57.085938 182.566406 C 57.011719 185.050781 57.007812 187.535156 57.074219 190.019531 C 57.140625 192.503906 57.28125 194.984375 57.488281 197.464844 C 57.699219 199.941406 57.976562 202.410156 58.328125 204.871094 C 58.679688 207.332031 59.097656 209.78125 59.589844 212.21875 C 60.078125 214.65625 60.640625 217.074219 61.269531 219.480469 C 61.898438 221.886719 62.59375 224.269531 63.359375 226.636719 C 64.125 229 64.957031 231.34375 65.855469 233.660156 C 66.753906 235.980469 67.71875 238.269531 68.75 240.53125 C 69.78125 242.792969 70.875 245.027344 72.035156 247.226562 C 73.191406 249.425781 74.410156 251.589844 75.695312 253.722656 C 76.976562 255.851562 78.316406 257.945312 79.71875 260 C 81.121094 262.050781 82.582031 264.0625 84.097656 266.035156 C 85.613281 268.003906 87.1875 269.929688 88.8125 271.8125 C 90.441406 273.691406 92.121094 275.523438 93.851562 277.308594 C 95.582031 279.09375 97.363281 280.828125 99.195312 282.511719 C 101.027344 284.195312 102.90625 285.824219 104.828125 287.398438 C 106.753906 288.976562 108.722656 290.496094 110.734375 291.960938 C 112.742188 293.421875 114.796875 294.828125 116.886719 296.175781 C 118.980469 297.519531 121.105469 298.804688 123.273438 300.03125 C 125.4375 301.253906 127.636719 302.417969 129.867188 303.515625 C 132.101562 304.617188 134.359375 305.648438 136.652344 306.621094 C 138.941406 307.589844 141.261719 308.492188 143.601562 309.332031 C 145.945312 310.167969 148.308594 310.941406 150.695312 311.640625 C 153.082031 312.34375 155.488281 312.980469 157.910156 313.542969 C 160.335938 314.109375 162.769531 314.605469 165.222656 315.03125 C 167.675781 315.457031 170.136719 315.8125 172.609375 316.097656 C 175.078125 316.382812 177.558594 316.597656 180.042969 316.742188 C 182.523438 316.886719 185.011719 316.960938 187.5 316.960938 C 189.988281 316.964844 192.472656 316.894531 194.957031 316.753906 C 197.441406 316.617188 199.921875 316.40625 202.394531 316.125 C 204.863281 315.84375 207.328125 315.488281 209.777344 315.066406 C 212.230469 314.644531 214.667969 314.152344 217.09375 313.59375 C 219.515625 313.03125 221.921875 312.402344 224.3125 311.703125 C 226.699219 311.003906 229.066406 310.238281 231.410156 309.402344 C 233.753906 308.570312 236.070312 307.671875 238.363281 306.703125 C 240.65625 305.738281 242.917969 304.707031 245.152344 303.609375 C 247.386719 302.515625 249.585938 301.355469 251.753906 300.136719 C 253.921875 298.914062 256.050781 297.632812 258.144531 296.289062 C 260.238281 294.945312 262.292969 293.546875 264.308594 292.085938 C 266.320312 290.625 268.292969 289.109375 270.21875 287.535156 C 272.144531 285.964844 274.027344 284.335938 275.859375 282.65625 C 277.691406 280.976562 279.476562 279.246094 281.210938 277.464844 C 282.949219 275.683594 284.628906 273.851562 286.261719 271.972656 C 287.890625 270.097656 289.464844 268.171875 290.984375 266.207031 C 292.503906 264.238281 293.96875 262.226562 295.375 260.175781 C 296.777344 258.125 298.125 256.035156 299.410156 253.90625 C 300.695312 251.777344 301.917969 249.613281 303.078125 247.417969 C 304.242188 245.21875 305.339844 242.988281 306.375 240.726562 C 307.40625 238.464844 308.375 236.175781 309.28125 233.863281 C 310.183594 231.546875 311.019531 229.203125 311.789062 226.839844 C 312.558594 224.476562 313.257812 222.09375 313.890625 219.6875 C 314.523438 217.285156 315.089844 214.863281 315.582031 212.429688 C 316.078125 209.992188 316.5 207.542969 316.855469 205.082031 C 317.210938 202.621094 317.492188 200.152344 317.707031 197.675781 C 317.917969 195.199219 318.0625 192.71875 318.132812 190.234375 C 318.203125 187.75 318.203125 185.265625 318.132812 182.78125 C 318.0625 180.296875 317.917969 177.816406 317.707031 175.339844 C 317.492188 172.863281 317.210938 170.394531 316.855469 167.933594 C 316.5 165.472656 316.078125 163.023438 315.582031 160.585938 C 315.089844 158.152344 314.523438 155.730469 313.890625 153.328125 C 313.257812 150.921875 312.558594 148.539062 311.789062 146.175781 C 311.019531 143.8125 310.183594 141.46875 309.28125 139.152344 C 308.375 136.839844 307.40625 134.550781 306.375 132.289062 C 305.339844 130.027344 304.242188 127.796875 303.078125 125.597656 C 301.917969 123.402344 300.695312 121.238281 299.410156 119.109375 C 298.125 116.980469 296.777344 114.890625 295.375 112.839844 C 293.96875 110.789062 292.503906 108.777344 290.984375 106.808594 C 289.464844 104.84375 287.890625 102.917969 286.261719 101.042969 C 284.628906 99.164062 282.949219 97.332031 281.210938 95.550781 C 279.476562 93.769531 277.695312 92.039062 275.859375 90.359375 C 274.027344 88.679688 272.144531 87.050781 270.21875 85.480469 C 268.292969 83.90625 266.320312 82.390625 264.308594 80.929688 C 262.292969 79.46875 260.238281 78.066406 258.144531 76.726562 C 256.050781 75.382812 253.921875 74.101562 251.753906 72.878906 C 249.585938 71.660156 247.386719 70.5 245.152344 69.40625 C 242.917969 68.308594 240.65625 67.277344 238.363281 66.3125 C 236.070312 65.34375 233.753906 64.445312 231.410156 63.613281 C 229.066406 62.777344 226.699219 62.011719 224.3125 61.3125 C 221.921875 60.613281 219.515625 59.984375 217.09375 59.421875 C 214.667969 58.859375 212.230469 58.371094 209.777344 57.949219 C 207.328125 57.527344 204.863281 57.171875 202.394531 56.890625 C 199.921875 56.609375 197.441406 56.398438 194.957031 56.261719 C 192.472656 56.121094 189.988281 56.050781 187.5 56.054688 Z M 187.5 18.75 " fill-opacity="1" fill-rule="nonzero"/></g></svg>